<svg width="21" height="21" viewBox="0 0 21 21" fill="none" xmlns="http://www.w3.org/2000/svg">
<path d="M17.5838 11.6693L11.9406 17.4063C11.5665 17.7864 11.0591 18 10.5301 18C10.001 18 9.49367 17.7864 9.11953 17.4063L3.47636 11.6703C3.00988 11.2003 2.63932 10.6412 2.38597 10.0253C2.13261 9.40929 2.00145 8.74852 2.00001 8.08088C1.99857 7.41324 2.12689 6.75188 2.37758 6.13479C2.62828 5.51769 2.99643 4.957 3.46088 4.4849C3.92534 4.01281 4.47696 3.63861 5.08408 3.38379C5.6912 3.12897 6.34185 2.99855 6.99869 3.00001C7.65553 3.00147 8.30562 3.13479 8.91163 3.39231C9.51765 3.64983 10.0677 4.02648 10.5301 4.50064C11.4693 3.5697 12.7316 3.05237 14.0435 3.06072C15.3553 3.06908 16.6112 3.60244 17.5389 4.54527C18.4666 5.48811 18.9915 6.76449 18.9999 8.09792C19.0083 9.43135 18.4995 10.7145 17.5838 11.6693Z" stroke="black" stroke-width="1.3" stroke-linecap="round" stroke-linejoin="round"/>
<path d="M10.6381 17.9064C10.5827 17.9219 10.5249 17.927 10.4676 17.9214C10.3412 17.8941 10.2267 17.8251 10.1416 17.725C10.0565 17.6248 10.0054 17.499 9.99612 17.3667L9.98902 17.2863L10.2185 12.5905L7.13506 12.863C7.03109 12.8723 6.92649 12.8521 6.83266 12.8045C6.73882 12.757 6.65934 12.684 6.60287 12.5934C6.54012 12.5029 6.5019 12.397 6.49214 12.2866C6.48238 12.1761 6.50144 12.0652 6.54735 11.9651L7.74296 9.28975L10.2349 4.26885C10.2897 4.15073 10.382 4.05542 10.4966 3.99848C10.6112 3.94154 10.7414 3.92634 10.8659 3.95538C10.9924 3.9827 11.1068 4.05168 11.1919 4.15182C11.277 4.25196 11.3281 4.37777 11.3374 4.51012L11.3445 4.59049L11.1151 9.28628L14.2056 9.01318C14.3096 9.0039 14.4142 9.02412 14.508 9.07166C14.6018 9.11919 14.6813 9.19221 14.7378 9.28276C14.8005 9.37323 14.8387 9.47915 14.8485 9.58959C14.8583 9.70003 14.8392 9.81101 14.7933 9.91108L13.5977 12.5864L11.1057 17.6073C11.0595 17.6943 10.9922 17.7675 10.9103 17.8199C10.8284 17.8723 10.7346 17.902 10.6381 17.9064ZM7.82425 11.6682L10.6661 11.4171C10.7446 11.4111 10.8235 11.4211 10.8983 11.4464C10.9732 11.4718 11.0425 11.512 11.1024 11.5649C11.1622 11.6177 11.2114 11.6821 11.2472 11.7543C11.2829 11.8266 11.3045 11.9053 11.3107 11.986L11.3178 12.0663L11.1659 15.128L12.6838 12.0487L13.5467 10.1464L10.7049 10.3975C10.6264 10.4035 10.5475 10.3935 10.4727 10.3682C10.3978 10.3428 10.3285 10.3026 10.2686 10.2497C10.2088 10.1969 10.1596 10.1325 10.1238 10.0603C10.0881 9.98802 10.0665 9.90931 10.0603 9.82863L10.0532 9.74827L10.2051 6.68655L8.68721 9.7659L7.82425 11.6682Z" fill="black"/>
</svg>
